<?xml version="1.0" encoding="utf-8"?>
<!-- Generator: Adobe Illustrator 23.0.1, SVG Export Plug-In . SVG Version: 6.00 Build 0)  -->
<svg version="1.1" id="Capa_1" xmlns="http://www.w3.org/2000/svg" xmlns:xlink="http://www.w3.org/1999/xlink" x="0px" y="0px"
	 viewBox="0 0 6529.9 1152.2" style="enable-background:new 0 0 6529.9 1152.2;" xml:space="preserve">
<style type="text/css">
	.st0{fill:#FFFFFF;}
</style>
<title>Big logo</title>
<g id="Layer_2">
	<g id="Layer_1-2">
		<path id="Big_logo" class="st0" d="M-0.6,0l0.3,1153l0,0h6530.1l0,0L6524.5,0H-0.6z M1047.3,1153h-249c13.5-4,26.4-10,38.3-17.7
			c13.4-8.6,26.1-18.1,38-28.5c12.1-10.6,28.2-25.3,47.8-43.8l0.9-0.7c12.7-10.8,29.7-16.3,50.7-16.3c22.3,0,41.1,6.5,55.7,19.5
			c10.6,9.4,23.3,26.8,23.3,56C1052.8,1132.2,1050.9,1142.9,1047.3,1153z M1649.1,943.6L1649.1,943.6c0,2.7-0.2,5.5-0.4,8.2
			c-0.1,1.2-0.3,2.4-0.5,3.6l-0.3,2.2c-0.3,1.8-0.6,3.5-1.1,5.2l-0.3,1.4c-0.3,1.3-0.6,2.7-1,4c-0.3,1.2-0.8,2.3-1.2,3.4
			c-1.2,3.3-2.6,6.6-4.1,9.8c-0.3,0.8-0.7,1.5-1,2.2c-0.2,0.4-0.5,0.8-0.7,1.2c-3.7,7.1-8.5,13.6-14,19.3l-148,148.9h-201.3
			c-1-23.6,7.8-46.6,24.4-63.4l60.8-61.1h-34l8.4,0.6H621.1c2.6,22,8.5,42.1,17.5,59.7c12.2,23.7,27.7,41,47.5,52.7
			c8.2,4.8,16.8,8.6,25.9,11.4H452.4c-29.1-52.9-44.2-116-44.2-189.1c0-49.6,7.5-96.3,22.4-139c15.1-43.3,37.4-81,66.5-112.1
			c29.2-31.3,65.6-55.6,108.1-72.2c37.4-14.7,79-22.5,123.5-24.1v159.6c-27.8,2.2-50.8,12.6-69.3,32.5c-17.5,18.8-29.6,46-36.2,81
			h234c-5.6-35.6-17.2-63-34.6-81.5c-20.5-21.7-47-32.3-80.9-32.8V616c1,0,2-0.2,3.1-0.2c66.3,0,124.3,14.4,172.5,42.8
			s84.9,65.9,109.1,111.3c14.8,27.7,25.2,57.6,30.9,88.5h0.2c0.4,1.8,0.6,3.6,0.9,5.4c0.7,4.3,1.6,8.6,2,12.9
			c1.4,9.4,2.1,18.8,2.1,28.3c0,0,4.2-15.6,0.7-46.6h295.6l-58.9-58.9c-33.5-33-33.8-86.9-0.8-120.3c33-33.5,86.9-33.8,120.3-0.8
			l0.8,0.8l204.1,204.2c2,2,3.9,4.1,5.7,6.2c0.8,1,1.5,2,2.2,3c0.9,1.2,1.9,2.4,2.8,3.7s1.5,2.5,2.2,3.7s1.4,2.2,2,3.4
			s1.3,2.6,1.9,3.9s1.2,2.4,1.7,3.6s0.9,2.6,1.4,3.9s1,2.7,1.4,4s0.7,2.7,1,4s0.8,2.7,1,4.1s0.5,3.1,0.7,4.7
			c0.2,1.2,0.4,2.4,0.5,3.6C1648.8,937.9,1649,940.7,1649.1,943.6L1649.1,943.6z M1726.8,1153c-10.1-23.6-15.7-47.1-15.7-70
			c0-23.1,8.2-43.3,24.3-59.8c16.3-16.7,37-25.2,61.7-25.2c20.6,0,38.5,6.8,53,20.2c12.9,11.9,23.9,29.2,32.5,51.4
			c8.5,21.3,17.8,39.3,27.6,53.4c8.2,11.8,20.1,21.8,35,29.9L1726.8,1153z M2309.6,1153h-221.2c7-3.3,13.6-7.2,19.9-11.8
			c21.8-16.3,32.4-35.6,32.4-59.3c0-18.6-5.3-33-16.1-44.1c-12.3-12.6-28.6-22.4-48.6-29.2c-22.4-7.6-53-15.9-90.8-24.5
			c-53.1-12.4-98.3-27.2-134.4-44c-38-17.7-68.7-42.2-91.1-73c-23-31.5-34.7-70.8-34.7-116.7c0-43.8,12.2-83.4,36.2-117.6
			c23.9-34,58.6-60.4,103.1-78.4c43.3-17.5,94.6-26.3,152.5-26.3c46.3,0,87.3,5.9,121.6,17.6c34.7,11.8,64,27.8,87.2,47.7
			c23.4,19.9,40.8,41.4,51.9,63.9c11.2,22.8,16.9,45.5,16.9,67.7c0,22.4-7.9,42.8-23.6,60.6c-16.3,18.5-36.9,27.8-61.4,27.8
			c-22.2,0-39.8-6.2-52.4-18.3c-10.3-10-20.9-25.1-32.2-46.2l-0.4-0.7c-11.8-24.5-25.9-43.6-41.9-57c-14.6-12.1-40-18.2-75.6-18.2
			c-33.3,0-60,7.1-79.5,21.1c-17.6,12.6-26.2,26.8-26.2,43.2c0,10,2.5,18.3,7.8,25.2c6.1,8.1,14.8,15.3,26,21.4
			c12.1,6.7,24.8,12.1,38,16.1c13.7,4.1,36.9,10.3,69,18.5c38,8.7,75.5,19.4,112.3,32c34.7,12.1,64.7,27,89.3,44.5
			c25.5,18,46.2,41.9,60.5,69.6c14.4,28,21.7,62.2,21.7,101.8C2325.8,1095.9,2320.3,1125.3,2309.6,1153L2309.6,1153z M2917,1153
			h-174.8V986.5c0-39.3-5.6-69.4-16.6-89.4c-3.3-6-13.4-24.2-55-24.2c-19.9,0-37.2,5.4-53,16.7c-16,11.4-27.7,26.6-35.8,46.5
			c-4.4,12.3-9.5,39.6-9.5,99.6V1153h-175.3V630.3c0-32.1,7.5-57.2,22.4-74.6c15.6-18.3,37.4-27.6,64.5-27.6
			c27.4,0,49.4,9.3,65.4,27.7c15.3,17.6,23,42.6,23,74.5v150c6-5.1,11.9-9.8,17.8-14c18.3-12.9,38.5-22.6,60-28.8
			c22.5-6.4,45.8-9.6,69.3-9.4c37.5,0,71.4,8.1,100.7,24.2c29.7,16.3,53.3,40.1,70.3,70.9c10.9,18.7,18.2,39.3,21.6,60.7
			c3.4,20.9,5.2,45.2,5.2,72L2917,1153z M3184.5,1153h-175.3V828.8c0-31.7,8-56.6,23.8-73.8c16.3-17.8,37.5-26.9,63.1-26.9
			c25.4,0,46.8,9,63.6,26.6c16.5,17.3,24.9,40.9,24.9,70.2L3184.5,1153z M3157.9,683.7c-16.9,15-37.2,22.7-60.4,22.7
			c-23.7,0-44.3-7.5-61.4-22.2c-17.9-15.5-27-37.1-27-64.2c0-25,9.1-45.9,27.2-62.2c17.4-15.8,38-23.7,61.2-23.7
			c21.7-0.2,42.8,7.4,59.3,21.4c18.3,15.2,27.6,36.9,27.6,64.5C3184.5,646.6,3175.5,668.1,3157.9,683.7L3157.9,683.7z
			 M3827.5,1141.5c-1.3,4-3,7.7-4.4,11.5h-204.5c14.6-10.8,26.8-26.7,36.2-47.8c10.3-23.2,15.5-52.1,15.5-85.8
			c0-32.5-4.9-60.6-14.6-83.4c-9.3-21.8-22.1-38.6-38.1-50c-15.1-11-33.3-16.8-52-16.7c-31.2,0-56.9,12.1-78.4,36.8
			c-22,25.3-33.2,64.2-33.2,115.7c0,48.3,11.1,85.9,33.1,111.7c6.4,7.4,13.7,13.9,21.7,19.4h-229.1V824.9c0-30.6,7.4-54.5,21.9-70.9
			c15.1-17.2,35.7-25.9,61.1-25.9c24.9,0,45.6,8.8,61.5,26c9.4,10.2,16.1,22.8,19.8,37.8c17-16,34.5-28.8,52.4-38.5
			c30.1-16.2,64.6-24.3,102.3-24.3c45,0,87,11.8,125,35s68.3,57.6,90.1,102c21.5,43.7,32.4,95.8,32.4,154.8
			C3846.1,1064.3,3839.9,1104.9,3827.5,1141.5L3827.5,1141.5z M4458.1,1141.5c-1.3,4-3,7.7-4.4,11.5h-204.5
			c14.6-10.8,26.8-26.7,36.1-47.8c10.3-23.2,15.5-52.1,15.5-85.8c0-32.5-4.9-60.6-14.6-83.4c-9.3-21.8-22.1-38.6-38.1-50
			c-15.1-11-33.3-16.8-52-16.7c-31.2,0-56.9,12.1-78.4,36.8c-22,25.3-33.2,64.2-33.2,115.7c0,48.3,11.2,85.9,33.1,111.7
			c6.4,7.4,13.6,13.9,21.6,19.4h-229V824.9c0-30.6,7.4-54.5,21.8-70.9c15.2-17.2,35.7-25.9,61.1-25.9c24.9,0,45.6,8.8,61.6,26
			c9.4,10.2,16,22.8,19.7,37.8c17-16,34.6-28.9,52.4-38.5c30.1-16.2,64.5-24.3,102.3-24.3c45,0,87,11.8,125,35s68.3,57.6,90.2,102
			c21.5,43.7,32.4,95.8,32.4,154.8c0,43.4-6.2,84-18.5,120.6L4458.1,1141.5z M4719,1153h-175.3V828.8c0-31.7,8-56.6,23.8-73.8
			c16.3-17.8,37.5-26.9,63.1-26.9c25.4,0,46.8,9,63.5,26.6c16.5,17.3,24.8,40.9,24.8,70.2V1153z M4692.4,683.8
			c-16.9,15-37.2,22.6-60.3,22.6c-23.7,0-44.3-7.5-61.4-22.2c-17.9-15.5-27-37.1-27-64.2c0-25,9.1-45.9,27.2-62.2
			c17.4-15.8,38-23.7,61.2-23.7c21.7-0.2,42.7,7.4,59.3,21.4c18.3,15.2,27.6,36.9,27.6,64.5C4719,646.6,4710.1,668.1,4692.4,683.8
			L4692.4,683.8z M5333.3,1153h-174.8V989.4c0-40.8-5.5-71.8-16.1-92.2c-3.1-6-12.7-24.3-55.6-24.3c-19.7,0-37.2,5.8-53.5,17.5
			s-28.2,28-36,49.1c-4,12.4-8.7,40.9-8.7,105.6v108h-175.4V824.9c0-30.6,7.4-54.5,21.9-70.9c15.2-17.2,35.8-25.9,61.1-25.9
			c14.9-0.2,29.5,3.7,42.4,11.2c12.9,7.5,23.2,18.8,30.7,33.4c2.9,5.5,5.1,11.4,6.8,17.4c15.4-15,32.9-27.7,51.9-37.7
			c30.9-16.1,66.6-24.3,106.2-24.3c38.8,0,74.1,8.7,104.9,25.7c31.4,17.4,55.3,42.3,70.9,74.1c9.9,18.6,16.5,38.8,19.3,59.7
			c2.8,19.9,4.1,45.4,4.1,75.7L5333.3,1153z M5961.9,1153h-241.6c4.1-1.8,8.4-3,12.4-5.5c16.5-10,30.3-25.4,40.9-46.1
			c10.9-21.1,16.5-47.5,16.5-78.5c0-49.9-10.7-88.7-31.8-115.4c-20.2-25.6-46.2-38.1-79.3-38.1c-32.2,0-57.1,11.8-76.4,36.1
			c-20.1,25.4-30.3,63.1-30.3,112c0,49.3,10.4,86.4,30.8,110.4c8.9,10.6,19.9,19.2,32.3,25.1h-212.8
			c-17.2-42.2-26.2-90.6-26.2-144.4c0-42.4,5.9-81.4,17.6-115.9c11.9-35,29.1-65.2,51.3-89.5s48.4-43.1,77.5-55.5
			c29-12.3,61.2-18.6,95.7-18.6c41.3,0,77.8,8.2,108.5,24.3c17.9,9.4,35.1,21.9,51.5,37.4c3.6-14.4,9.9-26.7,18.9-36.7
			c15.5-17.2,35.5-26,59.5-26c42.5,0,61.5,19.9,69.9,36.6c10.1,20,15,46.9,15,82.3L5961.9,1153z M6020.9,1153
			c9.7-36.8,47.4-58.7,84.2-49c24,6.3,42.7,25.1,49,49H6020.9z"/>
	</g>
</g>
</svg>
