<svg xmlns="http://www.w3.org/2000/svg" viewBox="0 0 234.58 43.19"><defs><style>.cls-1{fill:#fff;}.cls-2{fill:#e44c18;}.cls-3{fill:#ffa716;}.cls-4{fill:#cf8917;}.cls-5{fill:#1f226a;}.cls-6{fill:#00a39d;}.cls-7{fill:#e54c16;}</style></defs><title>logo1</title><g id="Layer_2" data-name="Layer 2"><g id="Layer_1-2" data-name="Layer 1"><g id="Group_252" data-name="Group 252"><path id="Path_597" data-name="Path 597" class="cls-1" d="M55.27,19.34l.07.15Z"/><path id="Path_598" data-name="Path 598" class="cls-1" d="M55.1,19.06l.09.14Z"/><path id="Path_599" data-name="Path 599" class="cls-1" d="M55.41,19.63c0,.05,0,.1.05.15S55.43,19.68,55.41,19.63Z"/><path id="Path_600" data-name="Path 600" class="cls-1" d="M55.59,20.25a1.13,1.13,0,0,1,0,.18A1.13,1.13,0,0,0,55.59,20.25Z"/><path id="Path_601" data-name="Path 601" class="cls-1" d="M55.52,19.94a.83.83,0,0,0,0,.15A.83.83,0,0,1,55.52,19.94Z"/><path id="Path_602" data-name="Path 602" class="cls-1" d="M55.66,20.91h0c0-.12,0-.23,0-.34,0,.11,0,.22,0,.33Z"/><path id="Path_603" data-name="Path 603" class="cls-1" d="M54.91,18.8a1,1,0,0,0,.08.11A1,1,0,0,1,54.91,18.8Z"/><path id="Path_604" data-name="Path 604" class="cls-2" d="M55.64,20.57a.68.68,0,0,0,0-.14.62.62,0,0,0,0-.18.75.75,0,0,0,0-.16.83.83,0,0,0,0-.15,1,1,0,0,0,0-.16l-.06-.15-.06-.14-.07-.15a1,1,0,0,1-.08-.14l-.09-.14L55,18.91l-.08-.11a2.61,2.61,0,0,0-.22-.24h0l-8-8a3.31,3.31,0,0,0-4.68,0h0a3.31,3.31,0,0,0,0,4.69l2.3,2.3,7.93,0h0a3.31,3.31,0,0,1,2.4,1,3.24,3.24,0,0,1,1,2.33h0C55.66,20.79,55.65,20.68,55.64,20.57Z"/><path id="Path_605" data-name="Path 605" class="cls-1" d="M55.62,20.43a.68.68,0,0,0,0,.14A.68.68,0,0,0,55.62,20.43Z"/><path id="Path_606" data-name="Path 606" class="cls-1" d="M55.55,20.09a.94.94,0,0,1,0,.16A.94.94,0,0,0,55.55,20.09Z"/><path id="Path_607" data-name="Path 607" class="cls-1" d="M55.46,19.78a.75.75,0,0,1,0,.16A.75.75,0,0,0,55.46,19.78Z"/><path id="Path_608" data-name="Path 608" class="cls-1" d="M55,18.91l.11.15Z"/><path id="Path_609" data-name="Path 609" class="cls-1" d="M54.91,18.8c-.07-.09-.15-.17-.22-.25h0C54.76,18.63,54.84,18.71,54.91,18.8Z"/><path id="Path_610" data-name="Path 610" class="cls-1" d="M55.19,19.2a1,1,0,0,0,.08.14Z"/><path id="Path_611" data-name="Path 611" class="cls-1" d="M55.34,19.49c0,.05,0,.09.07.14A.91.91,0,0,1,55.34,19.49Z"/><path id="Path_612" data-name="Path 612" class="cls-3" d="M54.44,23.46l-.11.09-.15.1-.14.09-.13.08-.15.07-.15.07-.15.05-.15.06-.16,0-.16,0-.17,0-.15,0H44.41L42,26.59a3.33,3.33,0,0,0,0,4.69h0a3.33,3.33,0,0,0,4.69,0l7.93-8Z"/><path id="Path_613" data-name="Path 613" class="cls-1" d="M55.19,22.59l-.09.15Z"/><path id="Path_614" data-name="Path 614" class="cls-1" d="M55.34,22.31l-.07.15Z"/><path id="Path_615" data-name="Path 615" class="cls-1" d="M55.55,21.71a.83.83,0,0,1,0,.15A.83.83,0,0,0,55.55,21.71Z"/><path id="Path_616" data-name="Path 616" class="cls-1" d="M55.62,21.36l0,.19A1.25,1.25,0,0,0,55.62,21.36Z"/><path id="Path_617" data-name="Path 617" class="cls-1" d="M55.46,22c0,.05,0,.1-.05.15S55.44,22.07,55.46,22Z"/><path id="Path_618" data-name="Path 618" class="cls-1" d="M55,22.88l-.08.12Z"/><path id="Path_619" data-name="Path 619" class="cls-1" d="M54.18,23.65a1.1,1.1,0,0,1-.14.09A.67.67,0,0,0,54.18,23.65Z"/><path id="Path_620" data-name="Path 620" class="cls-1" d="M53.31,24.07l-.15,0Z"/><path id="Path_621" data-name="Path 621" class="cls-1" d="M52.67,24.2h0Z"/><path id="Path_622" data-name="Path 622" class="cls-1" d="M53.91,23.82l-.15.08Z"/><path id="Path_623" data-name="Path 623" class="cls-1" d="M53,24.15l-.17,0Z"/><path id="Path_624" data-name="Path 624" class="cls-1" d="M54.44,23.46l-.11.09Z"/><path id="Path_625" data-name="Path 625" class="cls-1" d="M53.61,24l-.15.05Z"/><path id="Path_626" data-name="Path 626" class="cls-1" d="M55.64,21.22c0-.1,0-.21,0-.32h0C55.66,21,55.65,21.12,55.64,21.22Z"/><path id="Path_627" data-name="Path 627" class="cls-1" d="M53.16,24.11l-.17,0Z"/><path id="Path_628" data-name="Path 628" class="cls-1" d="M53.46,24l-.15.06Z"/><path id="Path_629" data-name="Path 629" class="cls-1" d="M52.82,24.17l-.15,0Z"/><path id="Path_630" data-name="Path 630" class="cls-1" d="M55.1,22.74a.76.76,0,0,1-.11.14A1.34,1.34,0,0,0,55.1,22.74Z"/><path id="Path_631" data-name="Path 631" class="cls-1" d="M54.44,23.46a3.41,3.41,0,0,0,.47-.46l-.22.24Z"/><path id="Path_632" data-name="Path 632" class="cls-1" d="M55.52,21.86l-.06.16Z"/><path id="Path_633" data-name="Path 633" class="cls-1" d="M55.41,22.17s0,.09-.07.14A.91.91,0,0,1,55.41,22.17Z"/><path id="Path_634" data-name="Path 634" class="cls-1" d="M54.33,23.55l-.15.1Z"/><path id="Path_635" data-name="Path 635" class="cls-1" d="M55.27,22.46l-.08.13Z"/><path id="Path_636" data-name="Path 636" class="cls-1" d="M55.59,21.55a1.24,1.24,0,0,1,0,.16A1.24,1.24,0,0,0,55.59,21.55Z"/><path id="Path_637" data-name="Path 637" class="cls-1" d="M53.76,23.89l-.15.07Z"/><path id="Path_638" data-name="Path 638" class="cls-1" d="M55.64,21.22a.59.59,0,0,1,0,.14A.59.59,0,0,0,55.64,21.22Z"/><path id="Path_639" data-name="Path 639" class="cls-1" d="M54,23.74l-.13.08Z"/><path id="Path_640" data-name="Path 640" class="cls-4" d="M54.68,18.57a3.32,3.32,0,0,0-4.69,0l-2.31,2.33-3.27,3.29h8.26l.15,0,.17,0,.17,0,.15,0,.15-.06.15-.05.15-.07.15-.07.13-.08a1.1,1.1,0,0,0,.14-.09l.15-.1.11-.09.25-.22.22-.24.08-.12.11-.14.09-.15.08-.13.07-.15s0-.1.07-.14,0-.1.05-.15a1,1,0,0,0,0-.16.83.83,0,0,0,0-.15,1.24,1.24,0,0,0,0-.16l0-.19a.83.83,0,0,0,0-.13c0-.1,0-.22,0-.32A3.36,3.36,0,0,0,54.68,18.57Z"/><path id="Path_641" data-name="Path 641" class="cls-5" d="M52.28,17.61a3.35,3.35,0,0,0-2.29,1l-2.31,2.33h0l-3.27,3.29H34.53a3.31,3.31,0,0,1-3.31-3.31h0a3.32,3.32,0,0,1,3.31-3.32h9.81l7.94,0Z"/><g id="Group_254" data-name="Group 254"><path id="Path_642" data-name="Path 642" class="cls-5" d="M78.39,19a14,14,0,0,0-3.48-1.74A41.08,41.08,0,0,0,70.54,16c-1.26-.32-2.16-.56-2.69-.72a7.75,7.75,0,0,1-1.48-.63,2.94,2.94,0,0,1-1-.84,1.5,1.5,0,0,1-.3-1,2,2,0,0,1,1-1.68,5.21,5.21,0,0,1,3.1-.82,4.63,4.63,0,0,1,2.94.71,6.48,6.48,0,0,1,1.64,2.21v0A7.53,7.53,0,0,0,75,15.11a2.85,2.85,0,0,0,2,.72,3.08,3.08,0,0,0,2.39-1.09,3.5,3.5,0,0,0,.92-2.36,6,6,0,0,0-.65-2.63,8,8,0,0,0-2-2.49A10.36,10.36,0,0,0,74.3,5.4a15,15,0,0,0-4.74-.68,15.81,15.81,0,0,0-5.94,1,8.83,8.83,0,0,0-4,3.06,7.8,7.8,0,0,0-1.41,4.58,7.54,7.54,0,0,0,1.35,4.55,9.11,9.11,0,0,0,3.55,2.84,27.44,27.44,0,0,0,5.24,1.71c1.47.34,2.66.66,3.53,1a4.57,4.57,0,0,1,1.9,1.14,2.35,2.35,0,0,1,.63,1.71,2.78,2.78,0,0,1-1.27,2.31,6,6,0,0,1-3.64,1,5.85,5.85,0,0,1-2.61-.5,3.93,3.93,0,0,1-1.47-1.24,10.76,10.76,0,0,1-1.07-2.08,5.46,5.46,0,0,0-1.27-2A3,3,0,0,0,61,23a3.28,3.28,0,0,0-2.4,1,3.23,3.23,0,0,0-.94,2.33A7.68,7.68,0,0,0,59,30.43a10,10,0,0,0,3.39,3.29,14.36,14.36,0,0,0,7.27,1.68A15.31,15.31,0,0,0,76,34.18a9.52,9.52,0,0,0,4.18-3.48,9.12,9.12,0,0,0,1.45-5,8.72,8.72,0,0,0-.85-4A7.61,7.61,0,0,0,78.39,19Z"/><path id="Path_643" data-name="Path 643" class="cls-5" d="M103.58,16.21a6.93,6.93,0,0,0-2.74-2.76,8.08,8.08,0,0,0-3.92-.94,9.51,9.51,0,0,0-2.7.37A7.77,7.77,0,0,0,91.88,14a8.13,8.13,0,0,0-.69.54V8.7a4.3,4.3,0,0,0-.89-2.9,3.22,3.22,0,0,0-2.55-1.08,3.14,3.14,0,0,0-2.52,1.07,4.36,4.36,0,0,0-.87,2.91V31.42c0,3.47,2.12,4,3.39,4a3.19,3.19,0,0,0,2.55-1.09,4.34,4.34,0,0,0,.89-2.89V24.49a13,13,0,0,1,.37-3.88A4,4,0,0,1,93,18.8,3.46,3.46,0,0,1,95,18.15c1.63,0,2,.71,2.15.94a7.45,7.45,0,0,1,.65,3.48v8.85c0,3.47,2.12,4,3.38,4a3.21,3.21,0,0,0,2.5-1.07,4.26,4.26,0,0,0,.93-2.91v-10a18.87,18.87,0,0,0-.2-2.81A6.87,6.87,0,0,0,103.58,16.21Z"/><path id="Path_644" data-name="Path 644" class="cls-5" d="M111.6,12.51a3.19,3.19,0,0,0-2.46,1,4.12,4.12,0,0,0-.92,2.88v15a4.26,4.26,0,0,0,.91,2.89,3.16,3.16,0,0,0,2.47,1.1,3.31,3.31,0,0,0,2.49-1.06,4.19,4.19,0,0,0,1-2.92V16.28a3.81,3.81,0,0,0-1-2.73A3.27,3.27,0,0,0,111.6,12.51Z"/><path id="Path_645" data-name="Path 645" class="cls-5" d="M114,5.78A3.56,3.56,0,0,0,111.66,5a3.48,3.48,0,0,0-2.39.92,3.11,3.11,0,0,0-1,2.42,3.13,3.13,0,0,0,1,2.5,3.49,3.49,0,0,0,2.39.87,3.43,3.43,0,0,0,2.35-.88,3.19,3.19,0,0,0,1-2.49A3.1,3.1,0,0,0,114,5.78Z"/><path id="Path_646" data-name="Path 646" class="cls-5" d="M136.05,13.91a9.21,9.21,0,0,0-4.87-1.36,8.27,8.27,0,0,0-4,.95,9.33,9.33,0,0,0-2,1.5,3.35,3.35,0,0,0-.77-1.48,3.11,3.11,0,0,0-2.4-1,3,3,0,0,0-2.38,1,4.09,4.09,0,0,0-.85,2.76V38.89a6.33,6.33,0,0,0,.57,3A2.75,2.75,0,0,0,122,43.18c1.24,0,3.31-.56,3.31-4.25V33.1A10.22,10.22,0,0,0,127,34.39a8,8,0,0,0,4.18,1,9,9,0,0,0,6.89-3.12,10.56,10.56,0,0,0,2-3.67,14.66,14.66,0,0,0,.73-4.7,13.78,13.78,0,0,0-1.26-6A9.5,9.5,0,0,0,136.05,13.91Zm-2.08,10a8.31,8.31,0,0,1-.6,3.34,4.37,4.37,0,0,1-1.51,1.94,3.36,3.36,0,0,1-2,.62,3.81,3.81,0,0,1-3.06-1.46A6.52,6.52,0,0,1,125.55,24a6.67,6.67,0,0,1,1.29-4.5,3.88,3.88,0,0,1,3-1.44,3.5,3.5,0,0,1,2,.65,4.45,4.45,0,0,1,1.48,1.95,8.2,8.2,0,0,1,.57,3.25Z"/><path id="Path_647" data-name="Path 647" class="cls-5" d="M160.61,13.91a9.18,9.18,0,0,0-4.87-1.36,8.23,8.23,0,0,0-4,.95,9.1,9.1,0,0,0-2,1.5,3.45,3.45,0,0,0-.77-1.48,3.12,3.12,0,0,0-2.4-1,3,3,0,0,0-2.39,1,4.09,4.09,0,0,0-.85,2.76V38.89a6.34,6.34,0,0,0,.58,3,2.73,2.73,0,0,0,2.66,1.32c1.23,0,3.3-.56,3.3-4.25V33.1a10.65,10.65,0,0,0,1.71,1.29,8,8,0,0,0,4.18,1,9.12,9.12,0,0,0,3.81-.81,9,9,0,0,0,3.08-2.31,10.75,10.75,0,0,0,2-3.67,14.65,14.65,0,0,0,.72-4.7,13.64,13.64,0,0,0-1.26-6A9.5,9.5,0,0,0,160.61,13.91Zm-2.07,10a8.48,8.48,0,0,1-.6,3.34,4.52,4.52,0,0,1-1.51,1.94,3.41,3.41,0,0,1-2,.62,3.81,3.81,0,0,1-3.06-1.46A6.58,6.58,0,0,1,150.11,24a6.78,6.78,0,0,1,1.29-4.5A3.9,3.9,0,0,1,154.46,18a3.45,3.45,0,0,1,2,.65A4.47,4.47,0,0,1,158,20.61a8.38,8.38,0,0,1,.57,3.25Z"/><path id="Path_648" data-name="Path 648" class="cls-5" d="M173.75,5.78A3.56,3.56,0,0,0,171.44,5a3.43,3.43,0,0,0-2.38.92A3.08,3.08,0,0,0,168,8.29a3.13,3.13,0,0,0,1.05,2.5,3.49,3.49,0,0,0,2.39.87,3.43,3.43,0,0,0,2.35-.88,3.19,3.19,0,0,0,1-2.49A3.1,3.1,0,0,0,173.75,5.78Z"/><path id="Path_649" data-name="Path 649" class="cls-5" d="M171.38,12.51a3.19,3.19,0,0,0-2.46,1,4.12,4.12,0,0,0-.92,2.88v15a4.26,4.26,0,0,0,.91,2.89,3.16,3.16,0,0,0,2.47,1.1,3.31,3.31,0,0,0,2.49-1.06,4.19,4.19,0,0,0,1-2.92V16.28a3.81,3.81,0,0,0-1-2.73A3.27,3.27,0,0,0,171.38,12.51Z"/><path id="Path_650" data-name="Path 650" class="cls-5" d="M197.84,16.39a6.51,6.51,0,0,0-2.76-2.88,8.3,8.3,0,0,0-4.08-1,8.85,8.85,0,0,0-4.14.94,9.14,9.14,0,0,0-2,1.47,3.21,3.21,0,0,0-.26-.67,3,3,0,0,0-1.2-1.3,3.1,3.1,0,0,0-1.65-.44,3,3,0,0,0-2.38,1,4.09,4.09,0,0,0-.85,2.76V31.42a4.19,4.19,0,0,0,.93,2.89,3.15,3.15,0,0,0,2.46,1.09,3.23,3.23,0,0,0,2.49-1,4.16,4.16,0,0,0,.95-2.93V24.86a15.42,15.42,0,0,1,.34-4.12,4,4,0,0,1,1.4-1.91,3.4,3.4,0,0,1,2.09-.68c1.66,0,2,.71,2.16,1a8,8,0,0,1,.63,3.59v8.73a4.19,4.19,0,0,0,.93,2.89,3.39,3.39,0,0,0,5,0,4.26,4.26,0,0,0,.93-2.91V21.67a24.3,24.3,0,0,0-.16-3A6.93,6.93,0,0,0,197.84,16.39Z"/><path id="Path_651" data-name="Path 651" class="cls-5" d="M222.66,13.93a2.77,2.77,0,0,0-2.73-1.42,3,3,0,0,0-2.31,1,3.27,3.27,0,0,0-.74,1.43,8.39,8.39,0,0,0-6.23-2.4,9.53,9.53,0,0,0-3.73.72,8.8,8.8,0,0,0-3,2.17,9.77,9.77,0,0,0-2,3.48,14.16,14.16,0,0,0-.68,4.52,14.58,14.58,0,0,0,1.12,5.9,9.38,9.38,0,0,0,3.3,4.1,8.77,8.77,0,0,0,5,1.48,8.48,8.48,0,0,0,4.16-1,8.74,8.74,0,0,0,1.56-1.13c0,.64,0,1.15-.06,1.54a5.75,5.75,0,0,1-.46,1.91,2.5,2.5,0,0,1-1.2,1.2,6.42,6.42,0,0,1-2.8.48,7,7,0,0,1-1.59-.16,3.13,3.13,0,0,1-1-.44,4.66,4.66,0,0,1-.84-.76l-.86-1v0a3.36,3.36,0,0,0-2.62-1.3,3,3,0,0,0-2.12.82,2.8,2.8,0,0,0-.9,2.15,4.32,4.32,0,0,0,1.37,3,9.05,9.05,0,0,0,3.59,2.16,15,15,0,0,0,5.1.8,18.09,18.09,0,0,0,5.17-.63,8.35,8.35,0,0,0,3.55-2,8,8,0,0,0,2-3.45,16.63,16.63,0,0,0,.59-4.71V17.14A7.08,7.08,0,0,0,222.66,13.93ZM216.55,24a6.71,6.71,0,0,1-.64,3.06,4.35,4.35,0,0,1-1.6,1.8,3.79,3.79,0,0,1-2.05.59,3.71,3.71,0,0,1-3-1.35,6.48,6.48,0,0,1-1.2-4.3,6.93,6.93,0,0,1,1.18-4.37,3.55,3.55,0,0,1,3-1.4,3.71,3.71,0,0,1,3.09,1.48A7.18,7.18,0,0,1,216.55,24Z"/><path id="Path_652" data-name="Path 652" class="cls-5" d="M14.64,32.62a2,2,0,0,0,1.56,0l11.76-5a2.78,2.78,0,0,0-.9-2,3.19,3.19,0,0,0-2.17-.75,2.94,2.94,0,0,0-2,.63l0,0Q21.73,26.61,21,27.24a14.77,14.77,0,0,1-1.49,1.11,6.06,6.06,0,0,1-1.53.7,6.68,6.68,0,0,1-1.78.22,4.88,4.88,0,0,1-2.55-.68,5,5,0,0,1-1.85-2.06,6.86,6.86,0,0,1-.69-2.35H22.27a9.23,9.23,0,0,0,4.21-.8c1.23-.64,1.85-1.94,1.85-3.88a11.5,11.5,0,0,0-1.41-5.4,11.06,11.06,0,0,0-4.25-4.33A13.05,13.05,0,0,0,16,8.1a14.82,14.82,0,0,0-5.43,1,11.22,11.22,0,0,0-4.21,2.81,12.13,12.13,0,0,0-2.59,4.37,16.31,16.31,0,0,0-.87,5.41,15.56,15.56,0,0,0,1.26,6.49Zm-2-17a4,4,0,0,1,3.11-1.3A4.19,4.19,0,0,1,19,15.61a5.8,5.8,0,0,1,1.35,3.17H11.22A6.23,6.23,0,0,1,12.63,15.62Z"/><g id="Group_252-2" data-name="Group 252-2"><path id="Path_653" data-name="Path 653" class="cls-6" d="M2,21.67a17.82,17.82,0,0,1,.93-5.79,13.19,13.19,0,0,1,2.77-4.67,12.17,12.17,0,0,1,4.5-3,14.15,14.15,0,0,1,5.93-1V1.05A1,1,0,0,0,15,0a1.1,1.1,0,0,0-.4.08L1.28,5.68A2.08,2.08,0,0,0,0,7.6V26.42l2.32-1A19.21,19.21,0,0,1,2,21.67Z"/></g><g id="Group_253" data-name="Group 253"><path id="Path_654" data-name="Path 654" class="cls-3" d="M14.25,33.1,0,27.06v5.78a1.18,1.18,0,0,0,.72,1.09l12.6,5.35a5.83,5.83,0,0,0,2.18.46V33.37A3.34,3.34,0,0,1,14.25,33.1Z"/><path id="Path_655" data-name="Path 655" class="cls-7" d="M16.92,33.1a3.33,3.33,0,0,1-1.42.27v6.37a6,6,0,0,0,2.35-.46l12.59-5.35a1.17,1.17,0,0,0,.72-1.09V27.06Z"/></g></g><circle id="Ellipse_14" data-name="Ellipse 14" class="cls-7" cx="228.56" cy="29.76" r="2.7"/><g id="Group_255" data-name="Group 255"><path id="Path_656" data-name="Path 656" class="cls-5" d="M230,4.42a4.67,4.67,0,0,1,2.25.6A4.14,4.14,0,0,1,234,6.72a4.63,4.63,0,0,1,.61,2.3,4.71,4.71,0,0,1-.6,2.28,4.34,4.34,0,0,1-1.7,1.7,4.65,4.65,0,0,1-4.57,0,4.48,4.48,0,0,1-1.7-1.7A4.8,4.8,0,0,1,225.4,9a4.74,4.74,0,0,1,.62-2.3A4.14,4.14,0,0,1,227.74,5,4.71,4.71,0,0,1,230,4.42Zm0,.76a4,4,0,0,0-1.89.5,3.55,3.55,0,0,0-1.43,1.42,3.8,3.8,0,0,0,0,3.82,3.63,3.63,0,0,0,1.42,1.41,3.79,3.79,0,0,0,3.8,0,3.53,3.53,0,0,0,1.43-1.41,3.83,3.83,0,0,0,.5-1.9,3.94,3.94,0,0,0-.51-1.92,3.53,3.53,0,0,0-1.43-1.41,3.81,3.81,0,0,0-1.88-.5Zm-2,6.37V6.61h1.7a4.1,4.1,0,0,1,1.26.14,1.3,1.3,0,0,1,.85,1.2,1.28,1.28,0,0,1-.38.94,1.5,1.5,0,0,1-1,.45,1.32,1.32,0,0,1,.42.27,5.1,5.1,0,0,1,.73,1l.6,1h-1l-.44-.78a4.12,4.12,0,0,0-.83-1.15,1.12,1.12,0,0,0-.64-.17h-.47v2.1Zm.8-2.78h1a1.58,1.58,0,0,0,.95-.2A.73.73,0,0,0,231,8a.67.67,0,0,0-.12-.39.78.78,0,0,0-.34-.26,2.69,2.69,0,0,0-.8-.09h-.91Z"/></g></g></g></g></svg>