<svg xmlns="http://www.w3.org/2000/svg" viewBox="0 0 361.37 66.51"><defs><style>.cls-1{fill:#fff;}.cls-2{fill:#fdb82c;}.cls-3{fill:#eb6424;}.cls-4{fill:#fcd38b;}.cls-5{fill:#00b1ad;}</style></defs><title>logo_white</title><g id="Layer_2" data-name="Layer 2"><g id="Layer_1-2" data-name="Layer 1"><path class="cls-1" d="M85.13,29.79l.12.23A2.53,2.53,0,0,0,85.13,29.79Z"/><path class="cls-1" d="M84.88,29.36a2.53,2.53,0,0,1,.13.22A2.53,2.53,0,0,0,84.88,29.36Z"/><path class="cls-1" d="M85.35,30.24c0,.08.06.16.08.23S85.38,30.32,85.35,30.24Z"/><path class="cls-1" d="M85.64,31.2a2.36,2.36,0,0,1,0,.28A2.36,2.36,0,0,0,85.64,31.2Z"/><path class="cls-1" d="M85.52,30.71l.06.24Z"/><path class="cls-1" d="M85.74,32.21h0a4.41,4.41,0,0,0,0-.52,4.19,4.19,0,0,1,0,.5Z"/><path class="cls-1" d="M84.58,29l.13.18Z"/><path class="cls-2" d="M85.71,31.69l0-.21a2.36,2.36,0,0,0,0-.28L85.58,31l-.06-.24-.09-.24c0-.07-.05-.15-.08-.23l-.1-.22-.12-.23a2.25,2.25,0,0,0-.12-.21,2.53,2.53,0,0,0-.13-.22,1.84,1.84,0,0,0-.17-.22L84.58,29c-.11-.13-.22-.25-.34-.37h0L72,16.33a5.11,5.11,0,1,0-7.22,7.22l3.54,3.54,12.23,0h0a5.11,5.11,0,0,1,5.21,5.08v0A4.19,4.19,0,0,0,85.71,31.69Z"/><path class="cls-1" d="M85.68,31.48l0,.21Z"/><path class="cls-1" d="M85.58,31l.06.25Z"/><path class="cls-1" d="M85.43,30.47l.09.24Z"/><path class="cls-1" d="M84.71,29.14a1.84,1.84,0,0,1,.17.22A1.84,1.84,0,0,0,84.71,29.14Z"/><path class="cls-1" d="M84.58,29c-.11-.13-.22-.26-.34-.38h0C84.36,28.71,84.47,28.83,84.58,29Z"/><path class="cls-1" d="M85,29.58a2.25,2.25,0,0,1,.12.21A2.25,2.25,0,0,0,85,29.58Z"/><path class="cls-1" d="M85.25,30l.1.22Z"/><path class="cls-3" d="M83.87,36.14l-.18.14-.22.16-.23.13a1.37,1.37,0,0,1-.2.13l-.23.11-.22.1-.23.08-.25.09-.23.06-.25.06-.27,0-.22,0-.51,0H68.4L64.76,41A5.11,5.11,0,0,0,72,48.17L84.22,35.82Z"/><path class="cls-1" d="M85,34.81a2.53,2.53,0,0,1-.13.22A2.53,2.53,0,0,0,85,34.81Z"/><path class="cls-1" d="M85.25,34.37l-.12.23A2.53,2.53,0,0,0,85.25,34.37Z"/><path class="cls-1" d="M85.58,33.44l-.06.24Z"/><path class="cls-1" d="M85.68,32.91a2.36,2.36,0,0,1,0,.28A2.36,2.36,0,0,0,85.68,32.91Z"/><path class="cls-1" d="M85.43,33.92c0,.07-.05.15-.08.23C85.38,34.07,85.41,34,85.43,33.92Z"/><path class="cls-1" d="M84.71,35.25l-.13.18Z"/><path class="cls-1" d="M83.47,36.44l-.23.13Z"/><path class="cls-1" d="M82.11,37.08l-.23.06Z"/><path class="cls-1" d="M81.14,37.27l-.51,0Z"/><path class="cls-1" d="M83,36.7l-.23.11Z"/><path class="cls-1" d="M81.63,37.2l-.27,0Z"/><path class="cls-1" d="M83.87,36.14l-.18.14Z"/><path class="cls-1" d="M82.59,36.91l-.23.08Z"/><path class="cls-1" d="M85.71,32.7a4,4,0,0,0,0-.49h0A4,4,0,0,1,85.71,32.7Z"/><path class="cls-1" d="M81.88,37.14l-.25.06Z"/><path class="cls-1" d="M82.36,37l-.25.09Z"/><path class="cls-1" d="M81.36,37.24l-.22,0Z"/><path class="cls-1" d="M84.88,35a1.84,1.84,0,0,1-.17.22A1.84,1.84,0,0,0,84.88,35Z"/><path class="cls-1" d="M83.87,36.14a4.77,4.77,0,0,0,.71-.71c-.11.13-.22.25-.34.37A3.92,3.92,0,0,1,83.87,36.14Z"/><path class="cls-1" d="M85.52,33.68l-.09.24Z"/><path class="cls-1" d="M85.35,34.15c0,.07-.07.14-.1.22C85.28,34.29,85.32,34.22,85.35,34.15Z"/><path class="cls-1" d="M83.69,36.28l-.22.16Z"/><path class="cls-1" d="M85.13,34.6a2.25,2.25,0,0,1-.12.21A2.25,2.25,0,0,0,85.13,34.6Z"/><path class="cls-1" d="M85.64,33.19l-.06.25Z"/><path class="cls-1" d="M82.81,36.81l-.22.1Z"/><path class="cls-1" d="M85.71,32.7l0,.21Z"/><path class="cls-1" d="M83.24,36.57a1.37,1.37,0,0,1-.2.13A1.37,1.37,0,0,0,83.24,36.57Z"/><path class="cls-4" d="M84.23,28.61a5.11,5.11,0,0,0-7.22,0l-3.57,3.59-5,5.07H80.63l.51,0,.22,0,.27,0,.25-.06.23-.06.25-.09.23-.08.22-.1L83,36.7a1.37,1.37,0,0,0,.2-.13l.23-.13.22-.16.18-.14a3.92,3.92,0,0,0,.37-.34c.12-.12.23-.24.34-.37l.13-.18a1.84,1.84,0,0,0,.17-.22,2.53,2.53,0,0,0,.13-.22,2.25,2.25,0,0,0,.12-.21l.12-.23c0-.08.07-.15.1-.22s.06-.16.08-.23l.09-.24.06-.24.06-.25a2.36,2.36,0,0,0,0-.28l0-.21a4,4,0,0,0,0-.49A5.09,5.09,0,0,0,84.23,28.61Z"/><path class="cls-1" d="M80.53,27.13A5.1,5.1,0,0,0,77,28.64l-3.57,3.59h0l-5,5.07H53.19a5.11,5.11,0,0,1,0-10.21H68.31l12.23,0Z"/><path class="cls-1" d="M120.76,29.28a21.63,21.63,0,0,0-5.36-2.67,66.6,66.6,0,0,0-6.74-1.92c-1.93-.49-3.32-.86-4.15-1.11a12,12,0,0,1-2.27-1,4.73,4.73,0,0,1-1.56-1.28,2.39,2.39,0,0,1-.47-1.51,3.19,3.19,0,0,1,1.57-2.6A8.1,8.1,0,0,1,106.55,16c2.14,0,3.67.36,4.54,1.09a10,10,0,0,1,2.52,3.42l0,0a11.06,11.06,0,0,0,1.93,2.77,4.38,4.38,0,0,0,3.15,1.1,4.73,4.73,0,0,0,3.68-1.67,5.35,5.35,0,0,0,1.41-3.63,9.19,9.19,0,0,0-1-4.06,12.25,12.25,0,0,0-3.11-3.84,16,16,0,0,0-5.24-2.86,22.79,22.79,0,0,0-7.29-1.05A24.38,24.38,0,0,0,98,8.85a13.59,13.59,0,0,0-6.2,4.7,12.07,12.07,0,0,0-2.17,7.06,11.62,11.62,0,0,0,2.08,7A14,14,0,0,0,97.18,32a43.16,43.16,0,0,0,8.07,2.64c2.27.52,4.1,1,5.45,1.47a7.4,7.4,0,0,1,2.92,1.75,3.6,3.6,0,0,1,1,2.65,4.27,4.27,0,0,1-1.94,3.56A9.26,9.26,0,0,1,107,45.64a9,9,0,0,1-4-.76,6.13,6.13,0,0,1-2.26-1.9,16.18,16.18,0,0,1-1.66-3.21,8.21,8.21,0,0,0-2-3.09A4.55,4.55,0,0,0,94,35.47a5.07,5.07,0,0,0-5.16,5.1,11.84,11.84,0,0,0,2,6.32A15.5,15.5,0,0,0,96.06,52a22.23,22.23,0,0,0,11.2,2.59A23.47,23.47,0,0,0,117,52.65a14.64,14.64,0,0,0,6.45-5.36,14,14,0,0,0,2.23-7.73,13.15,13.15,0,0,0-1.31-6.1A11.6,11.6,0,0,0,120.76,29.28Z"/><path class="cls-1" d="M159.56,25a10.57,10.57,0,0,0-4.21-4.25,12.53,12.53,0,0,0-6-1.45,14.71,14.71,0,0,0-4.15.57,12.09,12.09,0,0,0-3.6,1.72,13.07,13.07,0,0,0-1.07.84v-9a6.66,6.66,0,0,0-1.38-4.47,5,5,0,0,0-3.93-1.66,4.84,4.84,0,0,0-3.87,1.65A6.75,6.75,0,0,0,130,13.4v35c0,5.34,3.26,6.14,5.21,6.14a4.93,4.93,0,0,0,3.93-1.69,6.6,6.6,0,0,0,1.38-4.45V37.73a20,20,0,0,1,.57-6A6.06,6.06,0,0,1,143.2,29a5.34,5.34,0,0,1,3.18-1c2.5,0,3.1,1.09,3.3,1.45a11.44,11.44,0,0,1,1,5.36V48.4c0,5.34,3.27,6.14,5.22,6.14a5,5,0,0,0,3.85-1.65,6.57,6.57,0,0,0,1.42-4.49V32.94a26.53,26.53,0,0,0-.31-4.32A10.6,10.6,0,0,0,159.56,25Z"/><path class="cls-1" d="M171.92,19.27a4.93,4.93,0,0,0-3.79,1.61,6.36,6.36,0,0,0-1.43,4.43V48.4a6.61,6.61,0,0,0,1.41,4.45,4.85,4.85,0,0,0,3.81,1.69,5,5,0,0,0,3.82-1.64,6.36,6.36,0,0,0,1.49-4.5V25.08a5.9,5.9,0,0,0-1.5-4.22A5.06,5.06,0,0,0,171.92,19.27Z"/><path class="cls-1" d="M175.57,8.91A5.42,5.42,0,0,0,172,7.62a5.34,5.34,0,0,0-3.68,1.43,4.82,4.82,0,0,0-1.63,3.73,4.83,4.83,0,0,0,1.63,3.85A5.44,5.44,0,0,0,172,18a5.31,5.31,0,0,0,3.62-1.36,4.89,4.89,0,0,0,1.6-3.83A4.76,4.76,0,0,0,175.57,8.91Z"/><path class="cls-1" d="M209.57,21.43a14.14,14.14,0,0,0-7.49-2.1,12.83,12.83,0,0,0-6.14,1.46,14.83,14.83,0,0,0-3.15,2.31,5.09,5.09,0,0,0-1.18-2.27,4.85,4.85,0,0,0-3.7-1.56,4.66,4.66,0,0,0-3.66,1.55,6.28,6.28,0,0,0-1.32,4.26V59.9a9.67,9.67,0,0,0,.89,4.59c.49.92,1.61,2,4.09,2,1.91,0,5.1-.85,5.1-6.55V51a15.69,15.69,0,0,0,2.63,2,12.56,12.56,0,0,0,6.44,1.56A14.06,14.06,0,0,0,208,53.29a13.91,13.91,0,0,0,4.75-3.57,16.66,16.66,0,0,0,3.12-5.64,23,23,0,0,0,1.11-7.24A20.91,20.91,0,0,0,215,27.55,14.48,14.48,0,0,0,209.57,21.43Zm-3.19,15.33a12.75,12.75,0,0,1-.93,5.15,6.82,6.82,0,0,1-2.32,3,5.2,5.2,0,0,1-3,1,5.92,5.92,0,0,1-4.71-2.25c-1.32-1.54-2-3.8-2-6.7,0-3.09.67-5.42,2-6.94a5.93,5.93,0,0,1,4.7-2.21,5.25,5.25,0,0,1,3.12,1,6.89,6.89,0,0,1,2.29,3A12.87,12.87,0,0,1,206.38,36.76Z"/><path class="cls-1" d="M247.42,21.43a14.2,14.2,0,0,0-7.5-2.1,12.83,12.83,0,0,0-6.14,1.46,14.78,14.78,0,0,0-3.14,2.31,5.2,5.2,0,0,0-1.19-2.27,4.85,4.85,0,0,0-3.69-1.56,4.66,4.66,0,0,0-3.67,1.55,6.28,6.28,0,0,0-1.31,4.26V59.9a9.8,9.8,0,0,0,.88,4.59c.5.92,1.61,2,4.1,2,1.9,0,5.09-.85,5.09-6.55V51a16.11,16.11,0,0,0,2.63,2,12.59,12.59,0,0,0,6.44,1.56,14,14,0,0,0,5.87-1.25,13.82,13.82,0,0,0,4.75-3.57,16.66,16.66,0,0,0,3.12-5.64,22.66,22.66,0,0,0,1.11-7.24,20.91,20.91,0,0,0-1.94-9.29A14.53,14.53,0,0,0,247.42,21.43Zm-3.2,15.33a12.75,12.75,0,0,1-.93,5.15,6.82,6.82,0,0,1-2.32,3,5.17,5.17,0,0,1-3,1,5.92,5.92,0,0,1-4.72-2.25c-1.31-1.54-2-3.8-2-6.7,0-3.09.67-5.42,2-6.94a5.94,5.94,0,0,1,4.71-2.21,5.25,5.25,0,0,1,3.12,1,6.8,6.8,0,0,1,2.28,3A12.87,12.87,0,0,1,244.22,36.76Z"/><path class="cls-1" d="M267.66,8.91a5.42,5.42,0,0,0-3.56-1.29,5.3,5.3,0,0,0-3.67,1.43,4.8,4.8,0,0,0-1.64,3.73,4.83,4.83,0,0,0,1.63,3.85A5.44,5.44,0,0,0,264.1,18a5.29,5.29,0,0,0,3.62-1.36,4.89,4.89,0,0,0,1.6-3.83A4.76,4.76,0,0,0,267.66,8.91Z"/><path class="cls-1" d="M264,19.27a4.93,4.93,0,0,0-3.79,1.61,6.41,6.41,0,0,0-1.43,4.43V48.4a6.57,6.57,0,0,0,1.42,4.45,4.81,4.81,0,0,0,3.8,1.69,5,5,0,0,0,3.83-1.64,6.41,6.41,0,0,0,1.48-4.5V25.08a5.94,5.94,0,0,0-1.49-4.22A5.1,5.1,0,0,0,264,19.27Z"/><path class="cls-1" d="M304.78,25.26a10.12,10.12,0,0,0-4.26-4.45,12.88,12.88,0,0,0-6.29-1.54A12.87,12.87,0,0,0,284.74,23a6,6,0,0,0-.41-1,4.83,4.83,0,0,0-1.84-2,5,5,0,0,0-2.54-.67,4.66,4.66,0,0,0-3.67,1.55A6.28,6.28,0,0,0,275,25.08V48.4a6.5,6.5,0,0,0,1.43,4.45,4.85,4.85,0,0,0,3.78,1.69A5,5,0,0,0,284,52.92a6.45,6.45,0,0,0,1.47-4.52V38.29A23.73,23.73,0,0,1,286,32,6.2,6.2,0,0,1,288.17,29,5.3,5.3,0,0,1,291.39,28c2.57,0,3.14,1.1,3.33,1.46a12.36,12.36,0,0,1,1,5.53V48.4a6.5,6.5,0,0,0,1.43,4.45,5.2,5.2,0,0,0,7.64,0,6.57,6.57,0,0,0,1.42-4.49v-15a33.61,33.61,0,0,0-.25-4.54A10.51,10.51,0,0,0,304.78,25.26Z"/><path class="cls-1" d="M343,21.47c-.51-1-1.65-2.2-4.2-2.2a4.57,4.57,0,0,0-3.57,1.56A5.14,5.14,0,0,0,334.1,23,14.21,14.21,0,0,0,331,20.78a14,14,0,0,0-6.51-1.45,14.58,14.58,0,0,0-5.74,1.12,13.2,13.2,0,0,0-4.66,3.33A15.22,15.22,0,0,0,311,29.15a21.71,21.71,0,0,0-1,7,22.62,22.62,0,0,0,1.73,9.1,14.41,14.41,0,0,0,5.09,6.31,13.45,13.45,0,0,0,7.77,2.29,12.37,12.37,0,0,0,8.81-3.25c0,1-.06,1.77-.1,2.37a8.74,8.74,0,0,1-.71,2.94,3.78,3.78,0,0,1-1.86,1.84,9.91,9.91,0,0,1-4.31.74,10.47,10.47,0,0,1-2.44-.25,4.94,4.94,0,0,1-1.61-.67,6.55,6.55,0,0,1-1.3-1.18c-.47-.54-.91-1.08-1.33-1.59h0a5.17,5.17,0,0,0-4-2A4.66,4.66,0,0,0,312.4,54,4.34,4.34,0,0,0,311,57.3,6.72,6.72,0,0,0,313.12,62a14.17,14.17,0,0,0,5.53,3.32,23.49,23.49,0,0,0,7.86,1.24,28.28,28.28,0,0,0,8-1,12.8,12.8,0,0,0,5.47-3.11A12.44,12.44,0,0,0,343,57.12a26,26,0,0,0,.91-7.27V26.41A11.09,11.09,0,0,0,343,21.47ZM333.59,37a10.2,10.2,0,0,1-1,4.72,6.72,6.72,0,0,1-2.45,2.76,6,6,0,0,1-3.17.91,5.74,5.74,0,0,1-4.61-2.09c-1.23-1.44-1.85-3.67-1.85-6.62s.61-5.2,1.82-6.72a5.5,5.5,0,0,1,4.58-2.17A5.71,5.71,0,0,1,331.68,30C333,31.64,333.59,34,333.59,37Z"/><path class="cls-1" d="M22.55,50.26a3,3,0,0,0,2.4,0l18.11-7.72a4.23,4.23,0,0,0-1.39-3.06,4.86,4.86,0,0,0-3.34-1.17,4.56,4.56,0,0,0-3,1l-.05,0c-1.17,1.11-2.14,2-2.87,2.63a19.09,19.09,0,0,1-2.28,1.71,8.81,8.81,0,0,1-2.36,1.09A10.07,10.07,0,0,1,25,45.1a7.31,7.31,0,0,1-6.78-4.22,10.6,10.6,0,0,1-1.06-3.63H34.3A14.08,14.08,0,0,0,40.78,36c1.89-1,2.85-3,2.85-6a17.67,17.67,0,0,0-2.16-8.32,17.2,17.2,0,0,0-6.55-6.68A20.15,20.15,0,0,0,24.56,12.5,23,23,0,0,0,16.19,14,17.57,17.57,0,0,0,9.7,18.32a18.81,18.81,0,0,0-4,6.73,25.32,25.32,0,0,0-1.34,8.34,24.26,24.26,0,0,0,1.94,10Zm-3.1-26.2a6.19,6.19,0,0,1,4.8-2,6.46,6.46,0,0,1,5,2,9,9,0,0,1,2.08,4.89h-14A9.67,9.67,0,0,1,19.45,24.06Z"/><path class="cls-5" d="M3,33.38a27.11,27.11,0,0,1,1.43-8.91,20,20,0,0,1,4.27-7.19,18.64,18.64,0,0,1,6.93-4.64A22,22,0,0,1,24.79,11V1.62A1.61,1.61,0,0,0,22.55.13L2,8.75a3.22,3.22,0,0,0-2,3v29l3.57-1.5A29.12,29.12,0,0,1,3,33.38Z"/><path class="cls-2" d="M21.94,51,0,41.69V50.6a1.84,1.84,0,0,0,1.11,1.68l19.4,8.23a9,9,0,0,0,3.37.7v-9.8A5.23,5.23,0,0,1,21.94,51Z"/><path class="cls-3" d="M26.06,51a5.28,5.28,0,0,1-2.18.41v9.8a8.91,8.91,0,0,0,3.62-.7l19.4-8.23A1.84,1.84,0,0,0,48,50.6V41.69Z"/><circle class="cls-3" cx="352.1" cy="45.85" r="4.16"/><path class="cls-1" d="M354.31,6.82a7.23,7.23,0,0,1,3.47.91,6.55,6.55,0,0,1,2.65,2.62,7.13,7.13,0,0,1,0,7.06A6.54,6.54,0,0,1,357.82,20a7.11,7.11,0,0,1-7,0,6.6,6.6,0,0,1-2.62-2.62,7.07,7.07,0,0,1,0-7.06,6.55,6.55,0,0,1,2.65-2.62A7.24,7.24,0,0,1,354.31,6.82Zm0,1.17a6,6,0,0,0-2.9.76,5.42,5.42,0,0,0-2.21,2.19,5.87,5.87,0,0,0,0,5.88A5.69,5.69,0,0,0,351.37,19a5.91,5.91,0,0,0,5.87,0,5.53,5.53,0,0,0,2.18-2.19,5.9,5.9,0,0,0,0-5.88,5.48,5.48,0,0,0-2.21-2.19A6,6,0,0,0,354.31,8ZM351.2,17.8V10.19h2.62a6.43,6.43,0,0,1,1.94.21,1.84,1.84,0,0,1,.95.74,1.93,1.93,0,0,1,.36,1.11,2.07,2.07,0,0,1-.59,1.46,2.38,2.38,0,0,1-1.58.69,2.19,2.19,0,0,1,.64.4,9.08,9.08,0,0,1,1.13,1.51l.92,1.49H356.1l-.68-1.2a6.3,6.3,0,0,0-1.28-1.77,1.64,1.64,0,0,0-1-.26h-.72V17.8Zm1.23-4.28h1.49a2.43,2.43,0,0,0,1.46-.32,1,1,0,0,0,.39-.84,1,1,0,0,0-.19-.61,1.11,1.11,0,0,0-.52-.4,4.08,4.08,0,0,0-1.23-.13h-1.4Z"/></g></g></svg>